<svg width="46" height="45" viewBox="0 0 46 45" fill="none" xmlns="http://www.w3.org/2000/svg">
<path fill-rule="evenodd" clip-rule="evenodd" d="M22.5248 0.125039C20.7432 0.510672 19.2639 1.96585 18.8388 3.75115C18.5095 5.13423 18.896 6.96545 19.7075 7.86765C20.3669 8.60071 21.2576 8.92392 23.0717 9.08867C23.8855 9.16257 24.7029 9.01782 24.9679 8.7529C25.1365 8.58439 25.1467 8.50098 25.0912 7.75196C25.0578 7.30256 24.9981 6.69272 24.9585 6.39677C24.8741 5.76613 24.9586 5.38085 25.2392 5.11737C25.6013 4.77729 26.4307 4.46798 27.4051 4.30951C28.1243 4.19257 28.3563 4.1219 28.355 4.0202C28.3515 3.74882 27.9161 2.65784 27.6393 2.22665C26.9786 1.19746 25.7773 0.380005 24.5437 0.120017C23.7778 -0.0414109 23.2881 -0.040245 22.5248 0.125039ZM27.0973 4.73765C26.2758 4.90545 25.7237 5.14248 25.4501 5.44489C25.296 5.6151 25.2873 5.70819 25.3584 6.41847C25.4016 6.85047 25.4379 7.57618 25.439 8.03114C25.4407 8.74088 25.4155 8.88356 25.2615 9.03611C25.0386 9.25691 24.1618 9.49098 23.5603 9.49026C23.1286 9.48973 21.6485 9.2944 21.1165 9.16768L20.8649 9.10777L21.1341 9.39789C22.3947 10.7568 24.661 11.0609 26.3138 10.0927C27.4868 9.40569 28.357 7.85671 28.357 6.45605C28.357 5.99876 28.1565 5.12266 27.9752 4.78734L27.8636 4.58107L27.0973 4.73765ZM19.9336 10.7578C18.6517 10.9706 17.4347 11.9444 16.7922 13.2717C16.3451 14.1952 15.7009 16.4118 15.428 17.9658C15.0668 20.0211 15.1694 23.7639 15.624 25.1239C15.9964 26.2378 16.6566 26.964 17.6269 27.3269C17.8891 27.425 19.7888 27.7652 21.9474 28.1007C24.0662 28.4301 25.8042 28.7059 25.8097 28.7136C25.8151 28.7213 26.4157 30.241 27.1445 32.0907C28.6501 35.9126 28.5985 35.7981 28.9998 36.2075C29.609 36.8289 30.7316 37.0652 31.504 36.7345C32.3534 36.3707 32.9307 35.4963 32.9322 34.5706C32.933 34.1007 32.7596 33.6061 31.2666 29.8174C30.35 27.4916 29.5166 25.4537 29.4146 25.2886C29.1847 24.9168 28.614 24.4952 28.1862 24.3811C28.0087 24.3337 26.6724 24.1113 25.2166 23.8867C23.7608 23.6623 22.4324 23.4533 22.2647 23.4225L21.9598 23.3666L22.0244 22.1011C22.06 21.4051 22.1376 20.4925 22.1969 20.0733L22.3047 19.311L21.2707 18.2781C19.8455 16.8544 18.6048 15.0424 18.4415 14.1461C18.3077 13.4117 18.7365 12.6188 19.4679 12.2485C20.505 11.7233 21.3866 12.0714 22.0871 13.2826C22.5986 14.1669 23.0624 14.7932 23.1608 14.7323C23.2863 14.6548 23.2559 13.4499 23.1152 12.9217C22.8474 11.9161 22.2865 11.1641 21.5953 10.8837C21.188 10.7185 20.4891 10.6656 19.9336 10.7578ZM19.8047 12.4906C18.7932 12.8511 18.5409 13.8068 19.1592 14.9351C20.625 17.6097 23.0851 19.7501 25.8237 20.7332C27.2193 21.2343 29.7621 21.5574 30.5737 21.3369C31.5779 21.0641 32.0451 20.0735 31.59 19.1819C31.2751 18.565 30.9389 18.436 29.4414 18.3572C27.4758 18.2538 26.4012 17.9188 24.9588 16.9596C23.6393 16.0821 22.7535 15.0955 21.5827 13.2001C21.399 12.9024 21.1866 12.7002 20.9132 12.5624C20.4549 12.3314 20.2826 12.3202 19.8047 12.4906ZM0.0484521 14.4085L0 26.8138L0.298788 27.1124C0.512336 27.3259 0.711349 27.4276 0.99596 27.4686C1.21507 27.5003 4.02063 27.514 7.23058 27.4991C12.7062 27.4738 13.0822 27.4619 13.317 27.3081C13.8279 26.9734 13.8214 27.059 13.8214 20.6562C13.8214 14.3361 13.8227 14.3537 13.3623 14.0315C13.174 13.8997 12.5356 13.8852 6.89393 13.8852H0.634543L0.0484521 14.4085ZM36.2081 18.4942C35.4484 18.7331 34.8396 19.2387 34.4756 19.9331C34.2699 20.3255 34.2373 20.4968 34.2358 21.1943C34.2344 21.8589 34.2707 22.0758 34.4416 22.4225C34.8809 23.314 35.7794 23.9353 36.7285 24.0039C37.2043 24.0383 37.2752 24.0191 37.5125 23.7918C38.452 22.8923 38.3735 19.1909 37.4006 18.5098C37.1633 18.3436 36.7059 18.3377 36.2081 18.4942ZM32.1255 20.1935C32.1255 20.4572 31.7933 21.0178 31.4676 21.3036C31.0058 21.7089 30.4284 21.8139 29.0596 21.7417C27.9515 21.6833 27.9084 21.6876 27.9084 21.8586C27.9084 22.1387 28.2784 22.4954 28.6262 22.5506C28.8608 22.5878 29.188 22.5074 29.919 22.2329C30.4574 22.0308 30.905 21.8758 30.9139 21.8886C30.9228 21.9014 31.8495 24.6002 32.9731 27.8859C34.0967 31.1717 35.0494 33.914 35.0901 33.9798C35.1459 34.0701 35.2704 34.0003 35.5964 33.6954C35.8341 33.4732 36.2782 33.1452 36.5834 32.9664C39.3837 31.3261 42.9182 31.9488 44.9293 34.4367C45.3417 34.9468 45.4621 35.0443 45.6188 34.9955C46.0128 34.8727 46.018 34.5102 45.6352 33.8579C44.4623 31.8596 42.3004 30.5571 39.9182 30.4137L39.0522 30.3616L38.6873 29.4101C37.8824 27.3116 36.4951 25.7897 34.3726 24.6764L33.7183 24.3332L33.0175 22.2808C32.3608 20.3576 32.1255 19.807 32.1255 20.1935ZM4.24126 28.5634C4.17855 28.5887 4.06746 28.7247 3.99452 28.8658C3.8279 29.1878 3.80609 31.2805 3.96616 31.5809C4.09986 31.8318 4.31287 31.9945 4.51233 31.9981C4.71583 32.0018 4.7117 32.0452 4.44611 32.6985C3.48873 35.0535 2.69789 38.0514 2.69609 39.3325L2.69537 39.8033H5.79236L5.79164 38.615C5.79101 37.6189 5.82493 37.318 6.00106 36.7541C6.44207 35.3425 7.25732 34.1525 8.31869 33.3709C9.36068 32.6036 10.2886 32.236 11.5396 32.0952C14.6959 31.7396 17.6981 33.813 18.5452 36.9335C18.6589 37.3522 18.7025 37.8385 18.7 38.6599L18.6966 39.8033H33.5315L33.4506 39.2428C33.4061 38.9346 33.3937 38.4301 33.4231 38.1218L33.4765 37.5613H21.5546L21.2648 36.8662C20.692 35.4925 20.2672 33.8873 20.1389 32.6122C20.0804 32.03 20.0862 32.0062 20.3372 31.7904L20.5957 31.5681V30.2672C20.5957 29.0138 20.5877 28.9578 20.3782 28.7349L20.1607 28.5034L12.258 28.5105C7.91151 28.5143 4.30398 28.5382 4.24126 28.5634ZM10.9255 33.1279C9.82205 33.3952 8.67768 34.1198 7.95072 35.0118C5.8392 37.6026 6.4444 41.3947 9.25965 43.2134C10.1571 43.7932 11.073 44.0491 12.2512 44.0491C13.0782 44.0491 13.3545 44.0106 13.956 43.8115C15.762 43.2139 17.1728 41.6828 17.6432 39.8094C17.8467 38.9993 17.7821 37.5425 17.5078 36.7541C16.8857 34.9664 15.3765 33.5953 13.511 33.1229C12.8553 32.9569 11.6219 32.9592 10.9255 33.1279ZM38.5858 33.123C38.3144 33.197 37.7581 33.4212 37.3496 33.6213C35.9855 34.2896 34.8608 35.7102 34.5064 37.2128C34.3324 37.9507 34.3316 39.1712 34.5046 39.8518C35.2275 42.694 38.1087 44.548 40.9187 43.9789C43.0056 43.5563 44.4923 42.2428 45.1881 40.2069C45.4929 39.3152 45.5302 38.0404 45.2787 37.1129C44.8031 35.3597 43.4383 33.8898 41.7242 33.2851C40.8811 32.9877 39.3692 32.9096 38.5858 33.123ZM13.3087 36.6422C14.6239 37.3577 14.8125 39.1622 13.6762 40.1594C13.2187 40.5608 12.8442 40.7005 12.2316 40.6982C10.9216 40.6932 9.94605 39.6088 10.0805 38.3071C10.2439 36.7249 11.8952 35.8733 13.3087 36.6422ZM40.7907 36.5272C41.6098 36.8682 42.1368 37.7614 42.0628 38.6831C42.0126 39.3079 41.8545 39.6614 41.4392 40.0764C41.0253 40.4902 40.5182 40.6958 39.9064 40.6982C39.2938 40.7005 38.9193 40.5608 38.4618 40.1594C37.1289 38.9896 37.681 36.8236 39.4231 36.3884C39.7639 36.3033 40.4103 36.369 40.7907 36.5272Z" fill="#FF9E0C"/>
</svg>
