<svg width="260" height="214" viewBox="0 0 260 214" fill="none" xmlns="http://www.w3.org/2000/svg">
<path d="M226.206 83.1848C227.914 82.701 229.537 82.2129 231.179 81.7833C233.775 81.1041 236.417 80.7084 239.128 81.1716C242.542 81.7545 245.215 83.2919 246.364 86.4905C247.189 88.7865 246.763 91.0287 245.68 93.157C243.948 96.5569 240.963 98.3387 236.965 98.7713C235.966 98.8793 234.963 98.9551 233.964 99.0588C233.55 99.1019 233.129 99.1361 232.747 99.3133C232.392 99.4774 232.266 99.7229 232.435 100.074C232.469 100.146 232.505 100.216 232.547 100.285C234.292 103.193 235.559 106.297 237.001 109.33C237.493 110.364 237.981 111.402 238.426 112.454C239.413 114.791 238.877 116.216 236.547 117.411C234.104 118.663 231.655 119.907 229.187 121.116C222.516 124.385 215.794 127.566 209.17 130.911C204.3 133.371 199.311 135.621 194.446 138.081C186.392 142.152 178.105 145.814 170.022 149.829C161.57 154.027 152.935 157.905 144.482 162.098C136.064 166.275 127.467 170.136 119.053 174.314C111.555 178.038 103.895 181.474 96.4137 185.221C92.5621 187.149 88.6112 188.91 84.8183 190.928C81.927 192.467 78.8789 193.746 76.0772 195.428C75.9377 195.511 75.7858 195.578 75.638 195.649C73.0962 196.888 71.2215 196.403 69.8328 194.064C68.5951 191.979 67.3259 189.903 66.4035 187.674C66.1229 186.996 66.0129 186.946 65.3178 187.414C63.7926 188.426 62.1527 189.283 60.426 189.971C58.2922 190.839 56.0541 191.271 53.6938 191.018C48.5269 190.464 45.2854 186.743 44.5965 182.537C44.1815 180.002 44.5488 177.591 45.9261 175.352C46.3825 174.61 46.3671 174.58 45.6374 174.179C40.2023 171.192 38.4522 166.662 39.1264 161.143C39.3634 159.203 40.0473 157.377 40.9742 155.632C41.4982 154.645 41.4907 154.635 40.4984 153.95C35.4819 150.489 32.0496 145.941 29.6138 140.672C27.5967 136.309 26.1263 131.819 25.3616 127.14C24.3368 120.869 24.6253 114.679 26.3674 108.571C28.4168 101.384 31.9956 94.9645 37.3861 89.4607C43.4131 83.3069 50.8763 79.5278 59.7758 78.1232C64.6008 77.3652 69.4564 77.4321 74.3279 77.7114C75.9196 77.8028 77.5105 77.8847 79.107 77.7849C81.2448 77.6509 83.0547 76.8889 84.6288 75.5859C86.0318 74.4247 87.247 73.1069 88.4421 71.7698C91.4432 68.4144 94.4263 65.0481 98.0714 62.2461C105.268 56.7145 113.534 53.8701 122.987 53.9627C126.543 53.9976 129.995 54.6595 133.404 55.5837C134.131 55.7807 134.861 55.9704 135.589 56.1655C136.944 56.5289 138.052 56.1608 139.008 55.2607C140.529 53.8292 141.855 52.2424 143.253 50.713C146.093 47.6063 149.275 44.851 152.974 42.6266C157.432 39.9458 162.328 38.2175 167.523 37.1968C176.929 35.3502 186.34 35.5866 195.732 37.6772C200.261 38.6854 204.599 40.158 208.575 42.4744C211.21 44.0099 213.524 45.8649 215.283 48.2743C216.937 50.5177 217.806 53.17 217.771 55.8665C217.762 58.5959 216.963 61.1416 215.671 63.561C215.579 63.7339 215.475 63.9017 215.382 64.0743C214.876 65.0144 214.901 65.0861 216.016 65.2407C218.27 65.5528 220.32 66.3141 222.107 67.6474C225.05 69.8429 226.468 72.7533 226.774 76.1581C226.934 78.1378 226.759 80.1241 226.257 82.0455C226.191 82.3083 226.137 82.5736 226.094 82.8412C226.082 82.9084 226.137 82.9852 226.206 83.1848ZM154.881 47.5762C151.998 49.2149 149.796 51.5297 147.604 53.8514C147.233 54.2444 147.515 54.4577 147.91 54.6397C149.74 55.4815 151.343 56.6284 152.85 57.89C156.093 60.6033 158.815 63.7385 161.41 66.9732C161.631 67.2579 161.817 67.565 161.963 67.8884C162.127 68.2414 162.356 68.6608 161.994 68.977C161.582 69.3368 161.116 69.0606 160.714 68.8639C160.073 68.551 159.573 68.0628 159.044 67.6141C154.812 64.0207 150.58 60.427 146.349 56.8328C145.583 56.1832 145.54 56.1899 144.871 56.9058C143.836 58.0139 142.795 59.1088 141.518 60.001C139.868 61.1553 138.03 61.5809 135.972 61.3573C134.537 61.2015 133.187 60.7558 131.828 60.3435C126.899 58.8489 121.902 58.3138 116.795 59.1725C113.937 59.6528 111.182 60.4087 108.617 61.6695C107.699 62.1207 107.648 62.3067 108.329 62.9315C111.701 66.0186 115.219 68.936 119.427 71.0384C120.912 71.7805 122.399 72.5205 123.886 73.2584C124.41 73.5193 124.911 73.8138 125.267 74.2667C125.723 74.845 125.557 75.3094 124.826 75.4966C124.247 75.6453 123.661 75.5711 123.082 75.4493C120.865 74.9809 118.69 74.3491 116.577 73.5599C111.64 71.7224 107.391 69.1015 104.873 64.5551C104.585 64.0346 104.192 64.032 103.745 64.3397C102.171 65.4238 100.735 66.6513 99.3331 67.918C98.8438 68.3605 98.9864 68.675 99.4269 69.0742C102.727 72.0649 106.155 74.8955 110.322 76.8394C110.922 77.125 111.507 77.4397 112.072 77.7822C112.395 77.9668 112.686 78.196 112.934 78.4616C113.456 79.0465 113.24 79.5693 112.443 79.7358C111.989 79.8196 111.519 79.8051 111.069 79.6935C110.496 79.5677 109.926 79.4272 109.357 79.2868C104.27 78.0333 99.8979 75.7999 97.0017 71.5249C96.6096 70.946 96.4609 70.9511 95.9645 71.4261C95.7912 71.5915 95.647 71.7829 95.4886 71.961C93.6332 74.0408 91.8559 76.1797 89.8895 78.1754C86.7173 81.3952 82.8467 83.1598 78.0399 83.0301C76.3622 82.9849 74.684 82.9399 73.0076 82.8567C68.8506 82.65 64.7003 82.5411 60.5883 83.2203C60.0698 83.3063 59.5555 83.4134 58.9972 83.5187C59.2393 83.9129 59.567 83.908 59.8325 83.9935C61.9876 84.6835 64.0081 85.6997 65.8108 87.0002C67.8619 88.4764 69.5622 90.2574 71.1501 92.1434C72.8113 94.116 74.3701 96.1561 75.9024 98.2137C76.3107 98.762 76.6719 99.3443 76.7057 100.032C76.7355 100.641 76.4054 100.884 75.761 100.739C75.3519 100.636 74.9747 100.443 74.6624 100.176C74.1216 99.7401 73.5861 99.2967 73.073 98.8333C70.4135 96.4312 67.8096 93.9749 64.9286 91.7927C63.3579 90.6023 61.7518 89.458 59.9517 88.5777C57.3209 87.2909 54.466 86.8753 51.5637 86.6028C50.6431 86.4969 49.7165 86.6974 48.9502 87.1683C46.8441 88.4279 44.857 89.8224 43.0923 91.4741C42.9035 91.6509 42.5879 91.7822 42.6897 92.1178C42.8832 92.2634 43.0989 92.2269 43.2989 92.2065C48.6493 91.6606 53.1892 93.428 57.2655 96.5371C61.8194 100.01 64.4793 104.62 66.5533 109.583C66.6994 109.91 66.7549 110.264 66.715 110.612C66.6273 111.253 66.1768 111.461 65.5488 111.144C65.0947 110.915 64.7763 110.551 64.4769 110.166C63.4912 108.898 62.5148 107.624 61.4957 106.379C59.268 103.657 56.7427 101.201 53.8029 99.12C50.6619 96.8971 47.1679 95.9363 43.2618 96.4901C41.5163 96.7376 39.8523 97.2389 38.213 97.8344C37.6248 98.0305 37.1354 98.4165 36.8338 98.922C32.7815 105.448 30.575 112.476 30.7075 120.064C30.854 128.465 33.3399 136.329 37.9931 143.602C39.643 146.162 41.8587 148.375 44.4928 150.094C45.0478 150.462 45.5423 150.591 46.2365 150.399C47.1999 150.139 48.1127 149.744 48.9437 149.227C52.4662 147.022 56.1652 145.082 59.8722 143.162C63.5456 141.26 67.2919 139.476 71.0299 137.68C73.4349 136.526 75.9047 135.48 78.3223 134.353C87.2618 130.186 96.2615 126.125 105.06 121.704C110.225 119.109 115.422 116.566 120.532 113.878C124.517 111.782 128.538 109.742 132.558 107.7C137.564 105.156 142.562 102.599 147.604 100.117C154.414 96.7637 161.256 93.4639 168.098 90.1642C172.72 87.9349 177.284 85.6115 181.821 83.2396C186.143 80.9798 190.358 78.5694 194.412 75.9261C198.577 73.2108 202.528 70.2604 205.888 66.6939C207.866 64.5936 209.59 62.3326 210.754 59.732C212.545 55.7332 211.755 52.1341 208.419 49.0447C207.151 47.8714 205.702 46.9416 204.166 46.1108C200.516 44.136 196.555 42.9299 192.469 42.1209C183.869 40.418 175.287 40.3458 166.782 42.3803C162.497 43.4054 158.491 44.999 154.939 47.4638C154.922 47.5024 154.903 47.5399 154.881 47.5762ZM84.6013 184.81C87.6419 183.349 91.2118 181.673 94.7197 179.884C99.0649 177.669 103.548 175.689 107.88 173.443C111.99 171.313 116.252 169.439 120.363 167.304C124.253 165.284 128.296 163.524 132.187 161.496C136.255 159.377 140.482 157.524 144.559 155.412C148.596 153.32 152.791 151.493 156.825 149.387C160.745 147.339 164.827 145.563 168.753 143.516C172.675 141.471 176.754 139.689 180.686 137.653C185.198 135.318 189.833 133.187 194.405 130.951C205.319 125.612 216.315 120.414 227.28 115.161C228.428 114.611 229.588 114.08 230.734 113.526C231.817 113.002 231.876 112.893 231.444 111.795C230.479 109.342 229.492 106.896 228.5 104.452C228.118 103.508 227.954 103.439 227.09 103.989C224.345 105.733 221.28 106.831 218.137 107.79C214.88 108.784 211.533 109.49 208.254 110.414C204.873 111.367 201.696 112.688 198.869 114.667C196.722 116.171 194.914 117.986 193.344 119.984C189.658 124.678 184.779 127.553 178.527 128.417C176.416 128.709 174.302 128.993 172.184 129.246C170.189 129.483 168.204 129.765 166.24 130.161C163.007 130.813 160.468 132.325 158.9 135.08C158.667 135.488 158.375 135.867 158.116 136.263C155.895 139.659 152.781 142.015 148.685 143.293C145.822 144.186 142.866 144.707 139.908 145.233C134.978 146.111 130.022 146.881 125.396 148.789C121.807 150.27 119.055 152.441 117.842 156.031C117.406 157.321 116.899 158.592 116.374 159.852C115.417 162.215 113.846 164.316 111.797 165.972C109.032 168.2 105.732 169.463 102.277 170.452C97.8746 171.713 93.3212 172.386 88.8057 173.205C86.1717 173.683 83.5689 174.27 81.124 175.294C76.7566 177.123 73.64 180.384 70.3359 183.424C69.9888 183.743 70.0954 184.035 70.3903 184.334C71.6766 185.639 72.7046 187.119 73.7934 188.559C74.5235 189.524 74.5429 189.529 75.7153 188.982C78.5099 187.679 81.2968 186.363 84.6013 184.81ZM94.1397 145.182L94.0248 145.056C92.9075 145.687 91.798 146.331 90.6712 146.947C86.6142 149.17 82.4961 151.28 77.9485 152.574C74.3023 153.611 70.5855 154.02 66.7807 153.345C63.3597 152.737 60.2442 151.544 57.9297 148.974C57.456 148.449 56.9864 148.446 56.3856 148.734C54.3485 149.708 52.2969 150.658 50.252 151.619C49.8413 151.812 49.4692 152.029 49.2304 152.43C48.5069 153.645 47.7276 154.832 47.0142 156.052C45.7683 158.185 44.9971 160.465 44.9371 162.913C44.8664 165.817 45.8668 168.263 48.7621 169.807C50.9047 170.95 53.1927 171.209 55.5851 170.861C57.1373 170.635 58.5532 170.078 59.9259 169.416C64.9534 166.992 70.0634 164.711 74.9507 162.045C78.9512 159.862 82.7116 157.402 85.9448 154.297C88.1448 152.184 90.0833 149.87 92.0485 147.576C92.737 146.772 93.4419 145.979 94.1397 145.182ZM151.902 114.242C152.112 114.291 152.195 114.337 152.259 114.321C155.253 113.575 158.332 113.239 161.393 112.825C164.168 112.45 166.929 112.027 169.637 111.354C173.544 110.383 177.207 108.954 180.429 106.669C182.893 104.922 184.91 102.774 186.856 100.56C188.748 98.4097 190.649 96.2692 193.04 94.5537C194.373 93.597 195.836 92.84 197.318 92.0934C197.108 92.0843 196.898 92.1063 196.696 92.1585C193.047 93.0276 189.326 93.5507 185.584 93.9538C180.581 94.4926 175.652 95.2574 170.976 97.0566C169.21 97.7364 169.171 97.6546 169.401 99.4548C169.835 102.844 168.581 105.521 165.575 107.476C164.55 108.136 163.474 108.727 162.355 109.244C159.231 110.705 156.109 112.171 152.99 113.643C152.642 113.807 152.316 114.013 151.902 114.242ZM140.608 121.856C139.442 122.652 138.534 123.312 137.582 123.913C135.429 125.274 133.063 126.115 130.399 125.931C126.156 125.638 122.405 124.159 119.215 121.514C118.691 121.08 118.303 120.931 117.682 121.244C116.4 121.89 115.096 122.499 113.794 123.112C113.346 123.324 112.997 123.677 112.808 124.109C112.298 125.166 111.755 126.209 111.222 127.257C109.184 131.268 106.637 134.955 103.255 138.114C103.141 138.221 102.9 138.324 103.113 138.589C107.271 136.809 111.684 135.797 116.164 134.964C120.223 134.208 124.266 133.416 128.183 132.127C133.763 130.292 137.427 126.553 140.608 121.856ZM88.5349 134.792C89.4273 134.949 90.2856 135.1 91.0807 135.468C91.4999 135.662 91.9486 135.873 91.9416 136.381C91.9344 136.903 91.4734 137.078 91.0284 137.206C90.0711 137.48 89.1154 137.769 88.1405 137.981C86.4457 138.35 85.806 137.718 86.1671 136.099C86.1789 136.044 86.1127 135.973 86.0403 135.82C83.2399 136.815 80.6347 138.203 77.8752 139.282C75.1483 140.348 72.4684 141.526 69.8296 142.765C67.1908 144.004 64.3509 144.884 61.6996 146.41C62.0343 146.574 62.1753 146.656 62.3267 146.715C66.2958 148.266 70.3683 148.617 74.5441 147.77C76.9672 147.282 79.2764 146.488 81.5071 145.52C84.748 144.096 87.8791 142.472 90.8794 140.659C96.8986 137.057 101.945 132.516 106.309 127.297C106.462 127.114 106.777 126.944 106.541 126.553C100.579 129.362 94.6251 132.142 88.5349 134.792ZM123.273 118.578C125.026 119.157 126.709 119.767 128.428 120.268C131.043 121.03 133.371 120.465 135.51 118.97C140.291 115.628 144.931 112.105 150.239 109.445C152.33 108.396 154.425 107.369 156.597 106.469C158.765 105.57 160.939 104.677 162.869 103.364C164.583 102.197 165.253 100.545 165.425 98.6615C165.478 98.0788 165.257 97.9472 164.682 98.1181C164.564 98.1565 164.45 98.2036 164.34 98.2589C161.814 99.4536 159.291 100.653 156.763 101.842C156.282 102.068 155.976 102.353 155.965 102.903C155.953 103.507 155.577 103.972 155.183 104.441C153.375 106.592 150.96 107.887 148.195 108.696C147.36 108.941 146.517 109.17 145.663 109.351C145.262 109.437 144.771 109.437 144.537 109.029C144.293 108.603 144.63 108.29 144.945 108.034C145.224 107.803 145.53 107.603 145.86 107.438C146.821 106.971 147.704 106.4 148.665 105.754C147.416 106.238 146.397 106.901 145.307 107.442C141.78 109.193 138.209 110.865 134.723 112.686C131.131 114.564 127.468 116.328 123.839 118.146C123.628 118.251 123.364 118.309 123.273 118.578ZM206.628 74.225C208.911 76.0631 209.158 78.2524 207.398 80.4267C207.147 80.7338 206.864 81.0168 206.552 81.2715C205.528 82.1247 204.328 82.7789 203.021 83.1961C200.648 83.9363 198.219 84.5205 195.752 84.9442C195.466 85.0008 195.176 85.0334 194.883 85.0414C194.45 85.0432 194.008 84.9606 193.837 84.5344C193.687 84.1618 193.94 83.8697 194.21 83.6126C194.599 83.2633 195.049 82.9764 195.541 82.7636C197.958 81.6314 200.377 80.5038 202.793 79.3686C203.461 79.0546 204.14 78.7516 204.773 78.3854C205.099 78.2095 205.372 77.9601 205.566 77.66C205.759 77.3599 205.868 77.0186 205.881 76.6674C205.907 76.1756 205.65 75.9602 205.115 75.9804C204.487 76.004 204.023 76.3072 203.564 76.655C199.76 79.54 195.702 82.0981 191.503 84.4669C188.126 86.3719 184.717 88.2291 181.204 89.92C181.096 89.9717 180.978 90.0322 181.051 90.2678C182.313 90.1693 183.593 90.0564 184.877 89.9716C188.22 89.7515 191.558 89.5061 194.814 88.7414C198.749 87.8171 202.635 86.7749 206.164 84.8715C207.981 83.8913 209.356 82.5327 210.118 80.6955C211.329 77.7785 210.71 74.9044 209.694 72.0494C209.585 71.744 209.306 71.7716 209.095 71.9615C208.266 72.707 207.452 73.466 206.627 74.2245L206.628 74.225ZM204.041 90.2708C207.091 89.8101 210.19 89.5537 213.118 88.6055C215.235 87.9196 217.188 86.9509 218.464 85.1618C220.322 82.6099 221.15 79.5264 220.807 76.4418C220.626 74.6674 219.737 73.1688 218.365 71.9315C216.868 70.5819 215.107 69.5819 213.231 68.7486C212.71 68.5176 212.307 68.5029 211.904 68.9467C211.309 69.6005 211.184 69.8748 211.652 70.4799C212.623 71.7362 213.25 73.1426 213.846 74.5555C215.373 78.1707 215.199 81.637 212.735 84.8351C211.53 86.3987 209.94 87.5681 208.133 88.5033C206.821 89.1814 205.418 89.6728 204.041 90.2704L204.041 90.2708Z" fill="#F8B78D"/>
<path d="M44.2252 118.288C43.2676 118.8 42.175 119.062 41.0618 119.048C38.5864 119.007 36.8218 117.425 36.8189 115.143C36.8166 112.802 37.9777 110.971 39.9916 109.656C41.5546 108.636 43.3082 108.056 45.3052 108.346C46.2932 108.489 47.1611 108.826 47.8627 109.504C48.0079 109.644 48.1321 109.851 48.309 109.908C49.4548 110.274 49.3912 111.039 49.1787 111.898C48.9264 112.916 48.5403 113.899 48.0292 114.827C47.1959 116.346 45.9882 117.534 44.2252 118.288ZM46.3714 111.836C44.3136 111.775 42.6241 112.904 41.9783 114.811C43.9104 114.283 45.2503 113.312 46.3714 111.836ZM125.623 62.0156C126.619 61.5372 127.712 61.2497 128.836 61.1701C130.477 61.0453 131.904 61.3758 132.868 62.7965C133.266 63.3832 133.881 63.8351 134.156 64.5136C134.962 66.5041 134.154 68.7155 132.081 69.8165C129.683 71.0904 127.18 71.0564 124.784 69.7555C121.929 68.2053 121.633 64.998 124.065 62.9905C124.53 62.5969 125.055 62.2685 125.623 62.0156ZM154.938 47.4632C155.818 46.861 156.741 46.976 157.678 47.3609C159.049 47.9239 160.207 48.7826 161.262 49.7408C163.812 52.0337 165.861 54.7581 167.295 57.7616C167.939 59.1169 168.671 60.4371 169.201 61.837C169.466 62.5354 169.791 63.2262 169.762 63.9782C169.725 64.9629 169.051 65.2574 168.147 64.7111C167.676 64.4264 167.336 64.0166 167.041 63.5946C163.569 58.6365 159.608 54.0237 155.399 49.5869C154.823 48.9797 154.506 48.3601 154.882 47.5761C154.903 47.5396 154.922 47.5019 154.938 47.4632ZM104.423 92.2986C107.304 91.0145 109.967 89.8283 112.629 88.6399C113.083 88.4375 113.549 88.262 114.057 88.2392C115.053 88.1946 115.544 88.8353 115.143 89.6832C114.983 89.9961 114.771 90.2839 114.516 90.5367C113.33 91.7757 112.111 92.9935 110.74 94.054C108.959 95.4313 106.95 96.4193 104.57 96.6309C103.726 96.706 102.892 96.6574 102.101 96.334C100.717 95.7686 100.525 94.5651 101.68 93.6785C102.556 93.0052 103.66 92.703 104.423 92.2986ZM173.952 48.733C174.821 50.2153 174.641 51.7138 173.647 52.783C172.498 54.0176 170.593 54.3787 168.696 53.7212C166.978 53.1263 165.988 51.8301 165.968 50.1502C165.948 48.5037 167.268 46.8637 168.973 46.4262C169.505 46.2897 170.076 46.2153 170.583 46.4192C171.881 46.9412 173.034 47.7333 173.952 48.733ZM191.433 54.2465C191.745 54.7705 191.958 55.3393 192.061 55.9277C192.214 56.8901 191.491 57.411 190.51 57.0429C190.088 56.8667 189.693 56.6402 189.334 56.3692C187.66 55.1668 185.695 54.3654 183.616 54.0376C183.159 53.9717 182.711 53.8625 182.278 53.7119C181.329 53.3703 180.954 52.6272 181.274 51.7368C181.586 50.8705 182.27 50.3415 183.194 50.0606C185.463 49.3705 188.116 50.1142 189.777 51.945C190.421 52.6524 190.977 53.4246 191.433 54.2465ZM142.181 66.0603C143.306 65.7369 144.853 65.7519 146.303 66.3505C147.464 66.8299 148.048 67.8211 147.981 69.0098C147.912 70.2304 147.212 71.1322 146.011 71.6088C144.545 72.1902 143.057 72.0851 141.659 71.3451C140.555 70.7607 139.932 69.8572 139.991 68.6598C140.047 67.5199 140.67 66.7025 142.181 66.0603ZM85.2415 91.1764C85.5962 91.8865 85.9059 92.608 85.9291 93.4014C85.9613 94.505 85.4711 95.3717 84.4521 95.9039C83.4679 96.4178 82.4306 96.3414 81.4711 95.7649C79.9076 94.8256 79.2529 93.4453 79.3921 91.78C79.4329 91.194 79.69 90.6415 80.1205 90.2147C80.551 89.7879 81.1289 89.5127 81.7577 89.4349C83.3144 89.2209 84.5464 89.8366 85.2415 91.1764ZM63.1248 119.58C62.4978 119.823 61.8532 119.979 61.1692 119.931C59.6095 119.819 58.7731 118.625 59.3193 117.278C59.6233 116.528 60.1988 115.97 60.9233 115.56C61.7749 115.078 62.636 114.606 63.5218 114.181C64.8633 113.537 65.924 114.16 65.8173 115.538C65.6809 117.312 64.8394 118.707 63.1248 119.58ZM63.201 165.232C61.4317 165.909 59.6975 166.678 57.8117 167.077C56.7404 167.303 55.6606 167.374 54.5693 167.166C51.8891 166.655 50.1127 164.75 50.0507 162.226C50.0081 160.488 50.618 158.944 51.9491 157.708C52.7108 157.002 53.6278 156.545 54.7742 156.792C55.8519 157.024 56.3247 157.805 55.6355 158.586C55.0973 159.197 54.9141 159.97 54.8336 160.751C54.6944 162.101 55.2696 162.802 56.7032 163.064C57.7507 163.255 58.7939 163.169 59.835 163.059C60.9991 162.937 62.1589 162.776 63.325 162.674C63.9893 162.616 64.7118 162.562 65.0908 163.26C65.3478 163.733 64.9759 164.287 64.0898 164.809C63.8101 164.973 63.4982 165.092 63.201 165.232ZM79.1571 144.929C77.8316 145.577 76.2609 145.142 75.5962 143.942C74.9918 142.851 75.546 141.361 76.7761 140.771C78.0557 140.156 79.6686 140.564 80.2811 141.657C80.6023 142.235 80.6644 142.904 80.4537 143.517C80.243 144.131 79.7768 144.639 79.1571 144.929Z" fill="#F8B78D"/>
</svg>
