<svg width="66" height="49" viewBox="0 0 66 49" fill="none" xmlns="http://www.w3.org/2000/svg">
<path d="M65.0221 17.644C67.1965 14.7184 65.5942 11.2198 61.7049 9.54727C61.8147 9.39871 61.9317 9.2542 62.04 9.10363C64.3871 5.8708 62.2156 2.00233 57.4293 0.577421L57.1981 0.518808C54.3008 -0.350285 51.0641 -0.110779 48.4888 1.11201C47.9474 0.901815 47.6737 0.842191 47.3386 0.740123C42.9752 -0.563516 37.9987 0.686563 35.7657 3.65361C28.2711 13.6474 17.3511 22.2237 3.95743 28.635C-0.204077 30.6298 -1.41858 34.5569 1.93813 37.6715C1.22962 38.6116 0.882317 39.6616 0.929458 40.7209C0.976599 41.7803 1.41661 42.8135 2.20737 43.7218L2.35516 43.8906C4.81344 46.7748 10.3636 47.9733 14.8602 46.0441C17.715 48.6079 23.0632 49.3487 27.093 47.4347C43.0757 39.799 56.0994 29.57 65.0206 17.646L65.0221 17.644ZM5.62408 30.2964C19.4105 23.6972 30.6505 14.8693 38.3645 4.58232C39.8833 2.56522 43.2474 1.71836 46.1885 2.59655L46.2485 2.61474C45.9559 2.89467 45.6939 3.19076 45.4671 3.50101C36.1299 16.3162 22.1909 27.264 4.98171 35.2987C4.56747 35.4927 4.17606 35.7089 3.8111 35.9455L3.77452 35.903C2.14738 33.993 2.94193 31.5828 5.62408 30.2964ZM4.86611 42.8527L4.71247 42.6799C3.04436 40.7447 3.84622 38.2728 6.62202 36.9722C8.45279 36.1148 10.2498 35.2234 12.0112 34.2992L12.3082 34.6479C12.5038 34.8795 12.8246 35.0479 13.2 35.1161C13.5754 35.1843 13.9747 35.1468 14.31 35.0117C14.6453 34.8766 14.8892 34.6551 14.9879 34.3958C15.0867 34.1365 15.0323 33.8608 14.8368 33.6292L14.3422 33.0502C17.6992 31.2086 20.9158 29.2481 23.9792 27.1767C24.3216 27.4334 24.6669 27.6881 25.0093 27.9458C25.2713 28.1436 25.6363 28.2614 26.024 28.2733C26.4118 28.2853 26.7905 28.1903 27.0769 28.0094C27.3633 27.8285 27.5339 27.5764 27.5512 27.3086C27.5685 27.0409 27.431 26.7793 27.1691 26.5815C26.7974 26.3006 26.4214 26.0237 26.0468 25.7447C29.0062 23.6472 31.8086 21.4467 34.4429 19.1518L35.7891 19.8127C36.1068 19.9658 36.4995 20.0256 36.8809 19.9791C37.2624 19.9326 37.6016 19.7835 37.8242 19.5645C38.0467 19.3455 38.1345 19.0745 38.0682 18.8109C38.0018 18.5473 37.7869 18.3127 37.4704 18.1584L36.2471 17.5571L36.2354 17.552C38.8207 15.1875 41.2266 12.7318 43.4434 10.195L44.3009 10.4548C44.4761 10.5092 44.665 10.5392 44.857 10.5432C45.049 10.5472 45.2402 10.525 45.4197 10.4779C45.5993 10.4309 45.7637 10.3599 45.9035 10.2689C46.0433 10.178 46.1558 10.0689 46.2346 9.94796C46.3134 9.827 46.3569 9.6965 46.3627 9.56392C46.3684 9.43134 46.3363 9.29927 46.2682 9.17526C46.2 9.05125 46.0972 8.93773 45.9655 8.84116C45.8339 8.7446 45.6759 8.6669 45.5008 8.61249C45.3135 8.55388 45.1247 8.49728 44.936 8.44069C46.0368 7.11706 47.0859 5.77318 48.082 4.41053C49.5569 2.38938 52.9678 1.45561 56.0962 2.39039L56.3304 2.45102C59.4969 3.3949 61.0142 6.00824 59.4237 8.19916L59.0418 8.72264C59.0008 8.71355 58.9598 8.71254 58.9203 8.70546C54.7442 7.90913 50.511 9.29361 48.5458 11.9019C41.0494 21.8949 30.1297 30.4709 16.7375 36.8833C13.2111 38.5699 11.9819 41.8088 13.4115 44.3009C10.4836 45.6086 6.61324 44.9032 4.86611 42.8527ZM62.4204 16.7193C53.7203 28.3483 41.0191 38.3243 25.4322 45.7713C22.4911 47.1699 18.5183 46.4342 16.7653 44.3969C16.7434 44.2958 13.4862 40.8973 18.4042 38.5457C32.1879 31.9456 43.427 23.1188 51.1431 12.8337C53.8794 9.19963 59.1969 10.9601 59.3432 10.9641C62.5097 11.907 64.0373 14.5405 62.4204 16.7193Z" fill="#F8B78D"/>
</svg>
