<svg width="66" height="55" viewBox="0 0 66 55" fill="none" xmlns="http://www.w3.org/2000/svg">
<path d="M56.8381 7.12953C55.6059 5.57302 53.2905 5.30013 51.6709 6.37428L51.347 6.58911L46.4183 0.363038C46.1836 0.0665586 45.8456 -0.0483857 45.4043 0.0182054L4.95422 6.95228C1.9241 7.49253 -0.161364 10.0061 0.00990567 12.7184L1.04338 29.7797C1.07975 29.9816 1.05745 30.1094 1.1748 30.2577L6.10356 36.4837L5.77966 36.6986C4.16013 37.7727 3.78102 39.9458 5.01321 41.5023C5.77599 42.4659 6.90728 42.9589 8.0691 42.8666L8.0468 42.9944C7.82379 44.2727 8.12302 45.4306 8.8858 46.3942C10.294 48.1731 12.9251 48.6887 15.0809 47.8241L20.0684 54.1243C20.4204 54.569 20.979 54.6506 21.4649 54.3284L65.0302 25.4338C65.516 25.1115 65.6052 24.6002 65.2532 24.1555L60.2657 17.8553C61.8935 16.3236 62.1775 13.8744 60.7107 12.0214C59.8892 10.9838 58.6406 10.3424 57.3027 10.2124C57.7604 9.23065 57.5422 8.01897 56.8381 7.12953ZM45.3855 2.17838L49.7275 7.66325L7.78176 35.4837L3.43976 29.9988L45.3855 2.17838ZM2.03194 12.6207C1.92519 10.7699 3.35461 9.14358 5.36257 8.7161L41.4001 2.44792L2.85538 28.0127L2.03194 12.6207ZM6.95317 38.181L26.2255 25.3986C26.276 25.9303 26.5471 26.4287 26.8991 26.8735C27.2512 27.3182 27.7652 27.6555 28.2205 27.9187L8.94814 40.701C8.13838 41.2381 7.10214 41.0211 6.57406 40.354C6.04598 39.6869 6.22438 38.6643 6.95317 38.181ZM63.0469 24.4885L21.1011 52.3089L16.7591 46.824L58.7049 19.0036L63.0469 24.4885ZM58.5031 16.8767L14.6139 45.9861C13.3183 46.8455 11.5028 46.5801 10.564 45.3942C10.0946 44.8012 9.9268 44.1213 10.0606 43.3543C10.1944 42.5873 10.5852 41.989 11.233 41.5594L55.0412 12.5036C56.3368 11.6443 58.1523 11.9097 59.0911 13.0956C60.0299 14.2815 59.7987 16.0174 58.5031 16.8767ZM55.2185 8.20368C55.7466 8.87076 55.5682 9.89338 54.8394 10.3767L30.9514 26.2204C30.1416 26.7575 29.1054 26.5405 28.5773 25.8734C28.0492 25.2063 28.2276 24.1837 28.9564 23.7004L52.8444 7.85667C53.5146 7.29919 54.6318 7.46248 55.2185 8.20368Z" fill="#F8B78D"/>
</svg>
